HIERARCHY
ROOT pelvis
{
	OFFSET 0.000000 0.000000 0.000000
	CHANNELS 6 Xposition Yposition Zposition Zrotation Xrotation Yrotation
	JOINT lfemur
	{
		OFFSET 11.446000 0.000000 0.000000
		CHANNELS 3 Zrotation Xrotation Yrotation
		JOINT ltibia
		{
			OFFSET 0.000000 -42.030400 0.000000
			CHANNELS 3 Zrotation Xrotation Yrotation
			JOINT lfoot
			{
				OFFSET 0.000000 -39.930200 0.000000
				CHANNELS 3 Zrotation Xrotation Yrotation
				JOINT ltoes
				{
					OFFSET 0.000000 0.000000 11.775800
					CHANNELS 3 Zrotation Xrotation Yrotation
					End Site
					{
					    OFFSET 0.000000 0.000000 5.000000
					}
				}
			}
		}
	}
	JOINT rfemur
	{
		OFFSET -11.446000 0.000000 0.000000
		CHANNELS 3 Zrotation Xrotation Yrotation
		JOINT rtibia
		{
			OFFSET 0.000000 -42.030400 0.000000
			CHANNELS 3 Zrotation Xrotation Yrotation
			JOINT rfoot
			{
				OFFSET 0.000000 -39.930200 0.000000
				CHANNELS 3 Zrotation Xrotation Yrotation
				JOINT rtoes
				{
					OFFSET 0.000000 0.000000 11.775800
					CHANNELS 3 Zrotation Xrotation Yrotation
					End Site
					{
					    OFFSET 0.000000 0.000000 5.000000
					}
				}
			}
		}
	}
	JOINT thorax
	{
		OFFSET 0.000000 11.255600 -5.000000
		CHANNELS 3 Zrotation Xrotation Yrotation
		JOINT head
		{
			OFFSET 0.000000 43.799300 0.000000
			CHANNELS 3 Zrotation Xrotation Yrotation
			End Site
			{
			    OFFSET 0.000000 5.000000 0.000000
			}
		}
		JOINT lclavicle
		{
			OFFSET 0.000000 39.863000 0.000000
			CHANNELS 3 Zrotation Xrotation Yrotation
			JOINT lhumerus
			{
				OFFSET 17.380600 4.958300 0.000000
				CHANNELS 3 Zrotation Xrotation Yrotation
				JOINT lradius
				{
					OFFSET 0.000000 -27.561300 0.000000
					CHANNELS 3 Zrotation Xrotation Yrotation
					JOINT lhand
					{
						OFFSET 0.000000 -26.933000 0.000000
						CHANNELS 3 Zrotation Xrotation Yrotation
						End Site
						{
						    OFFSET 0.000000 -5.000000 0.000000
						}
					}
				}
			}
		}
		JOINT rclavicle
		{
			OFFSET 0.000000 39.863000 0.000000
			CHANNELS 3 Zrotation Xrotation Yrotation
			JOINT rhumerus
			{
				OFFSET -17.380600 4.958300 0.000000
				CHANNELS 3 Zrotation Xrotation Yrotation
				JOINT rradius
				{
					OFFSET 0.000000 -27.561300 0.000000
					CHANNELS 3 Zrotation Xrotation Yrotation
					JOINT rhand
					{
						OFFSET 0.000000 -26.933000 0.000000
						CHANNELS 3 Zrotation Xrotation Yrotation
						End Site
						{
						    OFFSET 0.000000 -5.000000 0.000000
						}
					}
				}
			}
		}
	}
}
MOTION
Frames:	14
Frame Time:	0.0333333
-42.4292 83.3107 1.67055 -5.11258 3.12799 -93.4916 1.9387 -27.124 0.343787 1.20194 13.5205 17.4167 3.81726 4.78869 -0.0350791 3.6576e-015 -5 3.1927e-015 6.25702 12.2433 -3.03311 -1.16301 21.0093 -4.31057 -2.33056 -15.5811 -0.602762 -4.77083e-015 -5 -0 7.57163 8.39299 2.59829 -10.3323 11.4029 0.242874 5.06479e-034 -5.8393e-016 4.96962e-017 12.153 7.65494 79.8753 5.33059 -0.112349 -113.305 6.86042 -8.04274 -9.13359 5.06479e-034 -5.8393e-016 4.96962e-017 -25.8006 -28.812 3.18153 12.0505 -24.1668 32.1516 -2.31223 -6.12167 9.70459 
-47.8184 82.0667 1.81823 -4.92195 3.2703 -94.5662 2.1214 -26.1794 -0.0437526 1.82243 2.90477 17.2839 3.28896 5.46207 -0.019022 2.98177e-016 -5 -0 5.70273 15.4981 -3.68473 -1.75327 21.8872 -2.25378 -1.34206 -17.9964 -0.488371 1.81893e-015 -5 -4.78906e-015 9.18483 7.93746 3.27194 -13.5452 11.0907 1.3464 7.95139e-016 5.96354e-016 9.93923e-017 10.6869 11.3645 83.2004 6.55313 -0.117504 -114.374 6.53365 -7.81334 -9.18652 7.95139e-016 5.96354e-016 9.93923e-017 -29.056 -31.7408 2.08177 12.7879 -25.6882 33.7169 -2.40266 -6.25753 9.69279 
-53.1835 80.942 1.99173 -4.8129 3.0136 -95.1162 1.82939 -27.4019 -0.239942 1.37078 2.36831 13.16 1.21119 5.6106 0.0680215 3.18055e-015 -5 -0 5.22682 18.1322 -2.68218 -2.43413 24.1562 -2.41688 0.642258 -19.2198 -0.126973 1.78906e-015 -5 -0 9.61928 7.44021 3.70893 -15.5975 11.4149 2.22554 1.59028e-015 3.72721e-016 -0 10.293 14.165 86.6885 8.618 -0.43406 -117.145 6.41967 -7.16239 -9.23196 1.59028e-015 3.72721e-016 -0 -30.8487 -33.3108 1.26146 13.1425 -26.42 34.6142 -2.63064 -6.45443 9.66553 
-58.4999 80.3865 2.29066 -4.75107 1.65807 -94.8793 -0.465089 -27.9476 -1.4744 0.9193 6.12709 10.9446 3.25876 11.3659 -0.285833 -2.38542e-015 -5 -0 4.12945 20.473 1.22465 -1.97171 26.8704 -6.11755 3.67737 -17.9629 0.305896 -3.69743e-015 -5 3.1927e-015 8.37193 6.73625 3.87761 -17.0178 12.3815 2.59576 2.38542e-015 6.52262e-017 4.96962e-017 10.1103 16.5964 88.6453 10.4504 -1.37717 -119.76 6.39186 -6.35219 -9.2797 2.38542e-015 6.52262e-017 4.96962e-017 -31.9159 -32.7223 0.868596 13.4883 -27.1014 35.0949 -2.79551 -6.7388 9.64185 
-64.051 80.2222 2.68071 -4.95833 0.207442 -94.3727 -3.47834 -29.9823 -3.24712 0.895134 15.8112 12.375 8.69492 16.8825 -1.0924 3.69743e-015 -5 -3.1927e-015 2.85619 20.9685 3.67644 -0.567482 33.5574 -9.65594 5.8727 -14.5178 0.385294 2.00767e-015 -5 4.78906e-015 6.8255 6.50151 3.97471 -16.8347 12.5674 1.81429 -2.38542e-015 2.60905e-016 -0 10.8536 16.6841 90.1317 12.0795 -2.27355 -123.512 6.33855 -5.39279 -9.33856 -2.38542e-015 2.60905e-016 -0 -32.0159 -31.2521 0.13449 13.9049 -27.8387 35.3284 -2.92936 -6.99718 9.62145 
-69.6781 80.2505 3.0404 -5.68423 -0.565562 -93.1957 -5.0586 -30.8236 -2.13508 0.70962 25.2325 10.4863 9.329 16.3494 -1.17963 -7.25573e-016 -5 7.98176e-016 1.72515 17.6074 1.09037 -0.930709 46.8198 -8.33231 9.46246 -5.05534 0.415026 -1.39131e-016 -5 -1.59635e-015 5.74313 7.01317 3.57437 -15.696 11.9933 0.630054 1.59028e-015 4.22417e-016 1.98785e-016 11.9152 14.1394 90.0806 13.1597 -2.94011 -127.406 6.62037 -4.67105 -9.3527 1.59028e-015 4.22417e-016 1.98785e-016 -30.5886 -29.5187 -0.449235 13.9223 -27.8547 35.138 -2.94395 -6.94189 9.62113 
-74.9218 80.6481 3.32748 -6.66345 -0.734439 -92.766 -4.78527 -29.3963 1.7069 0.717304 31.1372 7.55732 10.7022 13.3949 -1.06125 4.35344e-015 -5 -4.78906e-015 1.02277 12.4787 0.0647688 -1.28863 59.5417 -7.94368 7.74314 8.15835 -0.468694 -4.86959e-016 -5 -5.58723e-015 5.40273 7.48688 3.04472 -16.0909 12.0435 0.545397 7.95139e-016 1.19271e-015 -1.98785e-016 11.9606 11.7426 88.2386 12.6801 -2.83851 -129.606 6.72378 -4.45496 -9.35555 7.95139e-016 1.19271e-015 -1.98785e-016 -28.756 -27.3236 2.06264 13.4279 -26.8514 33.9152 -2.64686 -6.69176 9.65863 
-79.7767 81.2933 3.64335 -7.55574 -1.31744 -92.613 -4.83992 -26.839 4.68129 0.670742 34.7453 5.43584 11.4804 8.91132 -0.66372 -0 -5 -0 0.185035 7.83141 -0.377252 -1.83433 68.5018 -8.38067 5.13357 11.6608 -0.499306 -1.39131e-016 -5 -1.59635e-015 3.38555 7.72026 2.66275 -15.7843 13.4779 1.01234 7.95139e-016 4.72114e-016 9.93923e-017 12.3846 9.04762 85.3844 11.4762 -2.33988 -129.969 7.29302 -4.79755 -9.28609 7.95139e-016 4.72114e-016 9.93923e-017 -26.0388 -25.0671 6.85521 12.5034 -24.9537 31.7863 -2.47578 -6.58052 9.67873 
-84.4159 82.3382 4.00366 -7.97523 -2.04995 -92.0232 -5.82198 -23.0461 5.3736 0.623566 34.8609 4.56467 11.3997 5.75715 -0.32619 -2.38542e-015 -5 -0 -1.02599 2.72018 -1.48036 -2.60784 74.2973 -8.87537 4.10025 5.51916 -0.181619 -4.77083e-015 -5 -0 1.67666 7.44869 2.12836 -14.2228 15.5116 0.592358 -1.4009e-034 -8.07563e-017 -9.93923e-017 12.485 5.03409 81.4259 9.72716 -1.52547 -128.92 7.73018 -5.30877 -9.21295 -1.4009e-034 -8.07563e-017 -9.93923e-017 -23.3792 -21.7444 9.99022 11.4722 -22.9372 29.9365 -1.79371 -6.05318 9.75615 
-88.767 83.4929 4.28476 -7.98481 -2.35732 -91.7683 -6.72259 -19.1248 4.3777 0.648722 33.4539 5.26121 10.3986 3.52065 -0.0808378 3.69743e-015 -5 -3.1927e-015 -1.60186 -3.51662 -1.95834 -3.24588 76.9585 -9.46929 3.79697 2.70283 -0.0987646 -1.0734e-015 -5 -3.1927e-015 0.874452 7.37859 1.69422 -12.5045 16.8288 -0.483733 3.97569e-016 3.82039e-016 -0 11.7574 -0.0203685 77.3724 7.79214 -0.539798 -126.148 8.11036 -5.85804 -9.14015 3.97569e-016 3.82039e-016 -0 -21.1223 -17.4935 7.79756 10.9336 -20.7075 29.713 -0.886918 -5.39928 9.85225 
-93.0949 84.6037 4.51491 -8.03257 -2.58539 -91.3822 -7.86997 -14.7443 2.11736 0.692432 31.0762 7.07942 9.37614 1.85723 0.0718019 -7.25573e-016 -5 7.98176e-016 -2.0541 -9.44217 -2.19687 -3.14966 76.3411 -9.59831 3.14267 0.537243 -0.0538636 -1.39131e-016 -5 -1.59635e-015 0.00533141 7.58044 1.214 -10.2954 17.2985 -1.66215 3.97569e-016 -5.40446e-016 2.48481e-017 11.556 -5.40137 72.5461 4.92017 -0.0453141 -122.226 8.07935 -6.5383 -9.09605 3.97569e-016 -5.40446e-016 2.48481e-017 -19.0208 -13.3392 -1.42792 11.6838 -17.0093 33.4198 -0.648659 -5.28863 9.87489 
-97.4805 85.5393 4.70413 -8.26744 -2.68308 -91.3649 -8.64349 -9.96948 0.0804348 0.621343 28.3219 9.19507 8.56945 0.484544 0.172675 6.43067e-015 -5 7.98176e-016 -2.29756 -14.4604 -1.85159 -2.443 72.6079 -9.493 3.31976 -0.946758 -0.0338067 -3.45882e-015 -5 -3.1927e-015 -0.850457 7.88513 0.761689 -8.50916 17.3869 -2.44181 3.97569e-016 -9.73734e-016 4.96962e-017 11.8901 -10.393 67.507 1.47621 -0.101832 -117.631 8.38001 -7.7763 -8.97028 3.97569e-016 -9.73734e-016 4.96962e-017 -17.2215 -9.2578 -13.5738 12.5583 -12.7812 40.2487 -0.528468 -5.02387 9.88697 
-101.868 86.0787 4.82274 -8.34137 -2.77634 -91.2342 -9.18351 -5.66016 -1.50509 0.579412 26.1014 10.8467 7.78393 -1.08059 0.273503 3.25012e-015 -5 7.98176e-016 -2.4473 -18.7018 -1.65505 -1.7546 66.3206 -9.83 4.1096 -0.990364 -0.0275218 -1.72941e-015 -5 -1.59635e-015 -1.9624 7.9018 0.200452 -6.74025 17.4785 -2.98867 4.20269e-033 1.21134e-015 -1.98785e-016 12.8065 -14.968 62.121 -2.04792 -0.00304141 -112.539 8.46928 -9.08015 -8.87043 4.20269e-033 1.21134e-015 -1.98785e-016 -15.7009 -5.40896 -24.3665 12.3102 -8.97527 46.9981 -0.542082 -4.55666 9.88801 
-106.251 86.2215 4.89011 -8.30347 -3.2115 -91.1161 -9.83388 -1.7807 -1.92608 0.739649 24.3737 11.2076 7.18149 -2.84503 0.372034 1.77915e-015 -5 -2.39453e-015 -2.90047 -21.9788 -1.83876 -1.42199 57.6783 -11.0205 4.43449 0.189248 -0.0647058 -6.56007e-016 -5 1.59635e-015 -3.65168 7.63221 -0.374318 -4.61121 17.4617 -3.35179 9.93923e-017 1.39615e-015 1.98785e-016 13.7036 -18.2506 55.6288 -5.81892 -0.049353 -106.329 8.29874 -10.3556 -8.79172 9.93923e-017 1.39615e-015 1.98785e-016 -14.417 -1.82241 -31.2045 11.231 -5.81714 50.5899 -0.903482 -3.83445 9.86176 
